<svg width="260" height="138" viewBox="0 0 260 138" fill="none" xmlns="http://www.w3.org/2000/svg">
<path d="M1 69C1 50.4978 15.1466 33.512 38.5449 21.0929C61.8992 8.69724 94.2317 1 130 1C165.768 1 198.101 8.69724 221.455 21.0929C244.853 33.512 259 50.4978 259 69C259 87.5022 244.853 104.488 221.455 116.907C198.101 129.303 165.768 137 130 137C94.2317 137 61.8992 129.303 38.5449 116.907C15.1466 104.488 1 87.5022 1 69Z" stroke="#E6E6E6" stroke-width="2"/>
<path fill-rule="evenodd" clip-rule="evenodd" d="M168.194 95.8871C168.208 89.1773 170.717 82.747 175.172 78.0073C179.628 73.2675 185.665 70.6053 191.959 70.6047C192.224 70.614 192.488 70.5664 192.735 70.4647C192.982 70.3631 193.208 70.2095 193.398 70.0131C193.588 69.8166 193.74 69.5814 193.843 69.3213C193.947 69.0612 194 68.7816 194 68.4992C194 68.2167 193.947 67.9371 193.843 67.677C193.74 67.4169 193.588 67.1817 193.398 66.9852C193.208 66.7888 192.982 66.6352 192.735 66.5336C192.488 66.4319 192.224 66.3843 191.959 66.3936C185.665 66.3927 179.628 63.7304 175.173 58.9907C170.717 54.251 168.208 47.821 168.194 41.1112C168.194 40.5513 167.986 40.0143 167.614 39.6184C167.243 39.2224 166.739 39 166.214 39C165.688 39 165.185 39.2224 164.813 39.6184C164.442 40.0143 164.233 40.5513 164.233 41.1112C164.241 46.2115 165.49 51.2222 167.859 55.6534C170.228 60.0847 173.635 63.7846 177.748 66.3913L68.0411 66.3913C67.7763 66.3821 67.5124 66.4296 67.2652 66.5313C67.0179 66.6329 66.7924 66.7865 66.602 66.983C66.4116 67.1794 66.2601 67.4146 66.1567 67.6747C66.0533 67.9348 66 68.2144 66 68.4969C66 68.7794 66.0533 69.059 66.1567 69.319C66.2601 69.5791 66.4116 69.8144 66.602 70.0108C66.7924 70.2072 67.0179 70.3608 67.2652 70.4625C67.5124 70.5641 67.7763 70.6117 68.0411 70.6024L177.748 70.6024C173.634 73.2086 170.225 76.9085 167.856 81.3402C165.486 85.7719 164.236 90.7836 164.228 95.8848C164.228 96.4455 164.436 96.9833 164.808 97.38C165.18 97.7767 165.684 97.9997 166.21 98C166.736 98.0003 167.241 97.7779 167.613 97.3816C167.985 96.9854 168.194 96.4478 168.194 95.8871Z" fill="url(#paint0_linear)"/>
<defs>
<linearGradient id="paint0_linear" x1="188.578" y1="34.693" x2="96.7806" y2="162.396" gradientUnits="userSpaceOnUse">
<stop stop-color="#DDDBF4"/>
<stop offset="0.55" stop-color="#E64C9A" stop-opacity="0.57"/>
<stop offset="1" stop-color="#EB6495" stop-opacity="0.18"/>
</linearGradient>
</defs>
</svg>
