<svg width="260" height="138" viewBox="0 0 260 138" fill="none" xmlns="http://www.w3.org/2000/svg">
<path d="M259 69C259 87.5022 244.853 104.488 221.455 116.907C198.101 129.303 165.768 137 130 137C94.2317 137 61.8991 129.303 38.5449 116.907C15.1466 104.488 1 87.5022 1 69C1 50.4978 15.1466 33.512 38.5449 21.0929C61.8991 8.69723 94.2317 1 130 1C165.768 1 198.101 8.69723 221.455 21.0929C244.853 33.512 259 50.4978 259 69Z" stroke="#E6E6E6" stroke-width="2"/>
<path fill-rule="evenodd" clip-rule="evenodd" d="M91.8057 42.1129C91.7924 48.8227 89.2829 55.253 84.8277 59.9927C80.3725 64.7325 74.3355 67.3947 68.0412 67.3953C67.7763 67.386 67.5125 67.4336 67.2652 67.5353C67.018 67.6369 66.7924 67.7905 66.602 67.9869C66.4116 68.1834 66.2601 68.4186 66.1567 68.6787C66.0533 68.9388 66 69.2184 66 69.5008C66 69.7833 66.0533 70.0629 66.1567 70.323C66.2601 70.5831 66.4116 70.8183 66.602 71.0148C66.7924 71.2112 67.018 71.3648 67.2652 71.4664C67.5125 71.5681 67.7763 71.6157 68.0412 71.6064C74.3354 71.6073 80.3722 74.2696 84.8274 79.0093C89.2825 83.749 91.7922 90.179 91.8057 96.8888C91.8057 97.4487 92.0144 97.9857 92.3858 98.3816C92.7572 98.7776 93.261 99 93.7862 99C94.3115 99 94.8152 98.7776 95.1866 98.3816C95.558 97.9857 95.7667 97.4487 95.7667 96.8888C95.759 91.7885 94.5096 86.7778 92.1407 82.3466C89.7719 77.9153 86.3647 74.2154 82.2525 71.6087L191.959 71.6087C192.224 71.6179 192.488 71.5704 192.735 71.4687C192.982 71.3671 193.208 71.2135 193.398 71.017C193.588 70.8206 193.74 70.5854 193.843 70.3253C193.947 70.0652 194 69.7856 194 69.5031C194 69.2206 193.947 68.941 193.843 68.681C193.74 68.4209 193.588 68.1856 193.398 67.9892C193.208 67.7928 192.982 67.6392 192.735 67.5375C192.488 67.4359 192.224 67.3883 191.959 67.3976L82.2525 67.3976C86.3661 64.7914 89.7746 61.0915 92.1445 56.6598C94.5143 52.2281 95.7642 47.2164 95.772 42.1152C95.7723 41.5545 95.5637 41.0167 95.192 40.62C94.8202 40.2233 94.3159 40.0003 93.79 40C93.264 39.9997 92.7595 40.2221 92.3874 40.6184C92.0153 41.0146 91.806 41.5522 91.8057 42.1129Z" fill="url(#paint0_linear)"/>
<defs>
<linearGradient id="paint0_linear" x1="71.4219" y1="103.307" x2="163.219" y2="-24.3963" gradientUnits="userSpaceOnUse">
<stop stop-color="#DDDBF4"/>
<stop offset="0.55" stop-color="#E64C9A" stop-opacity="0.57"/>
<stop offset="1" stop-color="#EB6495" stop-opacity="0.18"/>
</linearGradient>
</defs>
</svg>
